/* XPM */
static char * different_xpm[] = {
"24 24 32 1",
" 	c None",
".	c #9E0000",
"+	c #980000",
"@	c #9B0000",
"#	c #890000",
"$	c #840000",
"%	c #9A0000",
"&	c #8D0000",
"*	c #7E0000",
"=	c #8B0000",
"-	c #920000",
";	c #950000",
">	c #9D0000",
",	c #900000",
"'	c #830000",
")	c #990000",
"!	c #8E0000",
"~	c #8C0000",
"{	c #820000",
"]	c #880000",
"^	c #8F0000",
"/	c #810000",
"(	c #800000",
"_	c #860000",
":	c #850000",
"<	c #970000",
"[	c #960000",
"}	c #8A0000",
"|	c #940000",
"1	c #9C0000",
"2	c #870000",
"3	c #930000",
"                        ",
"                        ",
"                .+      ",
"               @#$%     ",
"               &*=      ",
"              -$$;      ",
"            >,''&)      ",
"   )!&~~~~~=#'*{]~!)    ",
"   ^/${''{'(/**//$/^    ",
"   ;]]_____'(({:_]];    ",
"    @)+++<-_(:,[+)@     ",
"          -$_;          ",
"         %}_-           ",
"     @@@;#'_|@>11.      ",
"   +=]]_$(($2#]#]=!)    ",
"   ,///****(//({*'{-    ",
"   +=2:{(/:]##]#]=!)    ",
"    .<&$$&+111>11.      ",
"     )#$!               ",
"     ^$}@               ",
"    @]_;                ",
"    .&3                 ",
"                        ",
"                        "};
