/* XPM */
static char * equal_xpm[] = {
"24 24 36 1",
" 	c None",
".	c #008D18",
"+	c #008D17",
"@	c #008816",
"#	c #007C14",
"$	c #007B15",
"%	c #007914",
"&	c #007915",
"*	c #007813",
"=	c #007814",
"-	c #007D16",
";	c #00590F",
">	c #006210",
",	c #005A0E",
"'	c #005F0F",
")	c #00570F",
"!	c #005B0F",
"~	c #008216",
"{	c #007513",
"]	c #007013",
"^	c #007413",
"/	c #006D11",
"(	c #008B16",
"_	c #008717",
":	c #008B17",
"<	c #008C17",
"[	c #008C18",
"}	c #007714",
"|	c #007614",
"1	c #007A14",
"2	c #008818",
"3	c #007E15",
"4	c #00560E",
"5	c #005D0F",
"6	c #00540E",
"7	c #008015",
"                        ",
"                        ",
"                        ",
"                        ",
"                        ",
"                        ",
"     .+++++++++++.      ",
"   @#$%%%%&*&=%%%$#@    ",
"   -;>,'',')'!'',>;-    ",
"   ~{{]]]]^/^]]]]{{~    ",
"    (@___________@(     ",
"                        ",
"                        ",
"    .::<[<[[[[[[<.      ",
"   _}^^{|^|{{{{|{}12    ",
"   3;);45654;;456',7    ",
"   _}^^{|^|{{{{|{}12    ",
"    .::<[<[[[[[[<.      ",
"                        ",
"                        ",
"                        ",
"                        ",
"                        ",
"                        "};
