/* XPM */
static char * rename_xpm[] = {
"8 8 3 1",
" 	c None",
".	c #E90000",
"+	c #0000FF",
"    ..++",
"    ..++",
"    ..++",
"    ..++",
"......++",
"......++",
"++++++++",
"++++++++"};
