/* XPM */
static char * similar_xpm[] = {
"24 24 61 1",
" 	c None",
".	c #339D00",
"+	c #359E00",
"@	c #319100",
"#	c #2C8200",
"$	c #226700",
"%	c #256F00",
"&	c #2C8300",
"*	c #2F8E00",
"=	c #339900",
"-	c #309100",
";	c #2E8B00",
">	c #329800",
",	c #329A00",
"'	c #2C8600",
")	c #154000",
"!	c #0B2100",
"~	c #091D00",
"{	c #0B2300",
"]	c #0D2700",
"^	c #113300",
"/	c #206000",
"(	c #2F8F00",
"_	c #184900",
":	c #2C8400",
"<	c #339C00",
"[	c #091B00",
"}	c #061400",
"|	c #081800",
"1	c #0A1F00",
"2	c #0A1E00",
"3	c #071600",
"4	c #174600",
"5	c #2E8C00",
"6	c #2C8500",
"7	c #164200",
"8	c #0C2500",
"9	c #297C00",
"0	c #143E00",
"a	c #123700",
"b	c #1B5100",
"c	c #0E2C00",
"d	c #123600",
"e	c #103000",
"f	c #277600",
"g	c #0D2800",
"h	c #2B8100",
"i	c #309000",
"j	c #329600",
"k	c #309200",
"l	c #133B00",
"m	c #236B00",
"n	c #339A00",
"o	c #2D8900",
"p	c #216500",
"q	c #1D5800",
"r	c #1C5400",
"s	c #309400",
"t	c #329700",
"u	c #2B8000",
"v	c #2D8600",
"                        ",
"                        ",
"                        ",
"        .+              ",
"      @#$%&*=     -;>   ",
"    ,')!~{]^/(+  ;_^:   ",
"   <:^[}|123!4&567{89   ",
"   ;01[{ab4c~28de[3^;   ",
"  +f1g4hijkhl1}[[3!mn   ",
"   o_p*.   <5qc8{8rs    ",
"   +j=       t5&uvj     ",
"                        ",
"        .+              ",
"      @#$%&*=     -;>   ",
"    ,')!~{]^/(+  ;_^:   ",
"   <:^[}|123!4&567{89   ",
"   ;01[{ab4c~28de[3^;   ",
"  +f1g4hijkhl1}[[3!mn   ",
"   o_p*.   <5qc8{8rs    ",
"   +j=       t5&uvj     ",
"                        ",
"                        ",
"                        ",
"                        "};
